# xmcd CD database file
#
# Track frame offsets:
#	150
#	20530
#	35105
#
# Disc length: 736 seconds
#
# Revision: 0
# Processed by: cddbd v1.5PL3 Copyright (c) Steve Scherf et al.
# Submitted via: CDex 1.51
#
DISCID=2002de03
DTITLE=BON-BON BLANCO - BON VOYAGE!
DYEAR=2004
DGENRE=JPop
TTITLE0=Bon Voyage!
TTITLE1=ありがとう I Love You, Yet・・・
TTITLE2=BON Voyage! (Instrumental)
EXTD=YEAR: 2004
EXTT0=
EXTT1=
EXTT2=
PLAYORDER=
